HIERARCHY
ROOT Hips
{
	OFFSET 0.00000 0.00000 0.00000
	CHANNELS 6 Xposition Yposition Zposition Zrotation Yrotation Xrotation 
	JOINT LHipJoint
	{
		OFFSET 0 0 0
		CHANNELS 3 Zrotation Yrotation Xrotation
		JOINT LeftUpLeg
		{
			OFFSET 1.55766 -1.60504 1.11378
			CHANNELS 3 Zrotation Yrotation Xrotation
			JOINT LeftLeg
			{
				OFFSET 2.29047 -6.29302 0.00000
				CHANNELS 3 Zrotation Yrotation Xrotation
				JOINT LeftFoot
				{
					OFFSET 2.52265 -6.93093 0.00000
					CHANNELS 3 Zrotation Yrotation Xrotation
					JOINT LeftToeBase
					{
						OFFSET 0.17633 -0.48446 2.02656
						CHANNELS 3 Zrotation Yrotation Xrotation
						End Site
						{
							OFFSET 0.00000 -0.00000 1.04989
						}
					}
				}
			}
		}
	}
	JOINT RHipJoint
	{
		OFFSET 0 0 0
		CHANNELS 3 Zrotation Yrotation Xrotation
		JOINT RightUpLeg
		{
			OFFSET -1.48599 -1.60504 1.11378
			CHANNELS 3 Zrotation Yrotation Xrotation
			JOINT RightLeg
			{
				OFFSET -2.27280 -6.24448 0.00000
				CHANNELS 3 Zrotation Yrotation Xrotation
				JOINT RightFoot
				{
					OFFSET -2.50834 -6.89161 0.00000
					CHANNELS 3 Zrotation Yrotation Xrotation
					JOINT RightToeBase
					{
						OFFSET -0.26967 -0.74090 2.08741
						CHANNELS 3 Zrotation Yrotation Xrotation
						End Site
						{
							OFFSET -0.00000 -0.00000 1.10614
						}
					}
				}
			}
		}
	}
	JOINT LowerBack
	{
		OFFSET 0 0 0
		CHANNELS 3 Zrotation Yrotation Xrotation
		JOINT Spine
		{
			OFFSET 0.06481 2.02437 -0.08472
			CHANNELS 3 Zrotation Yrotation Xrotation
			JOINT Spine1
			{
				OFFSET 0.00015 1.96711 0.18069
				CHANNELS 3 Zrotation Yrotation Xrotation
				JOINT Neck
				{
					OFFSET 0 0 0
					CHANNELS 3 Zrotation Yrotation Xrotation
					JOINT Neck1
					{
						OFFSET -0.29961 1.68293 -0.13041
						CHANNELS 3 Zrotation Yrotation Xrotation
						JOINT Head
						{
							OFFSET 0.59697 1.61501 -0.14669
							CHANNELS 3 Zrotation Yrotation Xrotation
							End Site
							{
								OFFSET 0.22973 1.74906 -0.10148
							}
						}
					}
				}
				JOINT LeftShoulder
				{
					OFFSET 0 0 0
					CHANNELS 3 Zrotation Yrotation Xrotation
					JOINT LeftArm
					{
						OFFSET 3.37968 1.02893 0.31147
						CHANNELS 3 Zrotation Yrotation Xrotation
						JOINT LeftForeArm
						{
							OFFSET 5.19807 -0.00000 -0.00000
							CHANNELS 3 Zrotation Yrotation Xrotation
							JOINT LeftHand
							{
								OFFSET 3.09370 -0.00000 -0.00000
								CHANNELS 3 Zrotation Yrotation Xrotation
								JOINT LeftFingerBase
								{
									OFFSET 0 0 0
									CHANNELS 3 Zrotation Yrotation Xrotation
									JOINT LeftHandIndex1
									{
										OFFSET 0.67263 -0.00000 -0.00000
										CHANNELS 3 Zrotation Yrotation Xrotation
										End Site
										{
											OFFSET 0.54229 -0.00000 -0.00000
										}
									}
								}
								JOINT LThumb
								{
									OFFSET 0 0 0
									CHANNELS 3 Zrotation Yrotation Xrotation
									End Site
									{
										OFFSET 0.55057 -0.00000 0.55057
									}
								}
							}
						}
					}
				}
				JOINT RightShoulder
				{
					OFFSET 0 0 0
					CHANNELS 3 Zrotation Yrotation Xrotation
					JOINT RightArm
					{
						OFFSET -3.38254 0.96355 -0.16120
						CHANNELS 3 Zrotation Yrotation Xrotation
						JOINT RightForeArm
						{
							OFFSET -5.45222 -0.00000 -0.00000
							CHANNELS 3 Zrotation Yrotation Xrotation
							JOINT RightHand
							{
								OFFSET -3.01284 -0.00000 -0.00000
								CHANNELS 3 Zrotation Yrotation Xrotation
								JOINT RightFingerBase
								{
									OFFSET 0 0 0
									CHANNELS 3 Zrotation Yrotation Xrotation
									JOINT RightHandIndex1
									{
										OFFSET -0.62230 -0.00000 -0.00000
										CHANNELS 3 Zrotation Yrotation Xrotation
										End Site
										{
											OFFSET -0.50171 -0.00000 -0.00000
										}
									}
								}
								JOINT RThumb
								{
									OFFSET 0 0 0
									CHANNELS 3 Zrotation Yrotation Xrotation
									End Site
									{
										OFFSET -0.50937 -0.00000 0.50937
									}
								}
							}
						}
					}
				}
			}
		}
	}
}
MOTION
Frames: 5
Frame Time: .0083333
5.4743 16.4851 -12.6436 -3.9577 76.6723 9.4557 0.0000 0.0000 0.0000 -8.1277 -14.6670 -35.0136 7.5368 15.7678 50.8766 0.4202 2.8375 -13.6156 3.1791 -10.9794 -32.2105 0.0000 0.0000 0.0000 29.5484 13.5422 -22.5738 -2.7617 -10.2989 29.9503 0.3032 20.1306 -11.5241 -0.0221 -0.9592 2.6365 5.1103 0.0288 -4.8255 4.3726 -0.0656 -2.6262 1.6349 -0.0007 -0.0080 -27.2706 -14.8183 39.0376 48.4535 -23.7944 -25.8728 29.5684 -16.9327 -2.6829 -0.0000 0.0000 0.0000 -88.2975 6.7528 37.4803 20.7173 -31.4968 -5.9015 -0.0000 0.0000 -48.1057 26.5156 -13.2140 -6.5063 -7.1250 0.0000 -0.0000 -0.5691 15.2770 0.3991 -0.0000 0.0000 0.0000 76.3159 13.5533 13.7165 -13.7489 22.3746 -2.7318 0.0000 0.0000 25.5010 -23.8107 -7.8585 3.4527 7.1250 -0.0000 -0.0000 2.6120 -38.5468 0.4155
5.5347 16.4910 -12.6419 -3.8088 75.6071 9.7869 0.0000 0.0000 0.0000 -7.8191 -15.0993 -35.6394 7.2425 15.5327 49.7856 0.4205 2.8019 -13.5984 3.2319 -11.0614 -32.4871 0.0000 0.0000 0.0000 29.5180 13.7928 -22.2480 -2.7216 -10.2301 29.7252 0.3886 20.8216 -11.3459 -0.0299 -1.1157 3.0673 5.1980 0.1301 -4.6542 4.2485 0.0744 -2.6161 1.4635 0.0641 -0.0917 -27.2356 -14.8077 38.8963 48.5811 -23.7504 -25.8097 29.6767 -16.9279 -2.6373 0.0000 -0.0000 0.0000 -88.0903 6.7621 37.2521 20.5232 -31.2675 -5.8005 -0.0000 0.0000 -48.0559 27.6003 -13.1352 -6.7753 -7.1250 0.0000 -0.0000 0.1800 15.2275 -0.1264 0.0000 -0.0000 0.0000 76.7852 13.2495 13.3747 -13.9868 22.7159 -2.8230 0.0000 0.0000 23.8723 -23.6169 -8.1090 3.5293 7.1250 -0.0000 -0.0000 2.8026 -38.8047 0.4281
5.5966 16.4981 -12.6381 -3.7152 74.5393 10.0538 0.0000 0.0000 0.0000 -7.4975 -15.4962 -36.2138 6.9352 15.2771 48.6289 0.4218 2.6526 -13.5276 3.2986 -11.1634 -32.8331 0.0000 0.0000 0.0000 29.5014 14.0511 -21.8686 -2.6732 -10.1463 29.4517 0.4780 21.4914 -11.1441 -0.0382 -1.2613 3.4682 5.2756 0.2211 -4.4886 4.1297 0.2001 -2.5958 1.3024 0.1220 -0.1609 -27.2136 -14.7858 38.7314 48.7077 -23.6968 -25.7495 29.7898 -16.9152 -2.5907 -0.0000 -0.0000 0.0000 -87.8546 6.8059 37.1142 20.3670 -31.0820 -5.7196 -0.0000 0.0000 -47.8947 28.5151 -13.0104 -6.9733 -7.1250 0.0000 -0.0000 0.8168 15.2478 -0.5733 -0.0000 -0.0000 0.0000 77.2431 12.9338 13.1666 -14.2303 23.0630 -2.9177 0.0000 0.0000 22.2031 -23.1915 -8.2994 3.5387 7.1250 -0.0000 -0.0000 3.1889 -38.9786 0.4736
5.6598 16.5060 -12.6325 -3.6604 73.4700 10.2789 0.0000 0.0000 0.0000 -7.1613 -15.8816 -36.7386 6.6181 15.0017 47.4147 0.4238 2.4260 -13.4242 3.3691 -11.2698 -33.1953 0.0000 0.0000 0.0000 29.4937 14.3114 -21.4525 -2.6186 -10.0504 29.1402 0.5707 22.1442 -10.9282 -0.0461 -1.3851 3.8090 5.3368 0.3009 -4.3358 4.0239 0.3103 -2.5670 1.1628 0.1728 -0.2138 -27.2138 -14.7493 38.5451 48.8287 -23.6357 -25.6905 29.9041 -16.8946 -2.5412 -0.0000 0.0000 0.0000 -87.6220 6.8788 37.0334 20.2398 -30.9302 -5.6541 -0.0000 0.0000 -47.6151 29.2136 -12.8511 -7.0897 -7.1250 0.0000 -0.0000 1.3093 15.3342 -0.9167 -0.0000 0.0000 0.0000 77.6683 12.6115 13.1192 -14.4692 23.4015 -3.0119 0.0000 0.0000 20.4514 -22.6845 -8.4626 3.5200 7.1250 -0.0000 -0.0000 3.6443 -39.1158 0.5292
5.7243 16.5144 -12.6259 -3.6314 72.4014 10.4763 0.0000 0.0000 0.0000 -6.8153 -16.2695 -37.2163 6.2943 14.7076 46.1517 0.4251 2.1659 -13.2977 3.4500 -11.3902 -33.6075 0.0000 0.0000 0.0000 29.4874 14.5805 -21.0088 -2.5601 -9.9464 28.8032 0.6667 22.7831 -10.6988 -0.0539 -1.4978 4.1196 5.3928 0.3754 -4.1989 3.9218 0.4118 -2.5306 1.0295 0.2198 -0.2496 -27.2100 -14.7086 38.3491 48.9393 -23.5647 -25.6390 30.0135 -16.8659 -2.5005 0.0000 0.0000 0.0000 -87.3697 6.9841 37.0330 20.1476 -30.8198 -5.6068 -0.0000 0.0000 -47.2687 29.6496 -12.6692 -7.1162 -7.1250 0.0000 -0.0000 1.6251 15.4813 -1.1328 0.0000 0.0000 0.0000 78.0697 12.2846 13.1576 -14.6949 23.7194 -3.1022 0.0000 0.0000 18.7342 -22.0934 -8.5810 3.4660 7.1250 -0.0000 -0.0000 4.1688 -39.1972 0.5973
